{"title":"Life Of The Party (2005).DVDRip.XviD-iNTiMiD","uid":8799491,"size":734554112,"categoryP":"video","categoryS":"movies","magnet":"?xt=urn:btih:29155a0afbcdf4c70c2cae2e4d6ed4415aeb2def&amp;dn=Life+Of+The+Party+%282005%29.DVDRip.XviD-iNTiMiD&amp;tr=udp%3A%2F%2Ftracker.openbittorrent.com%3A80&amp;tr=udp%3A%2F%2Fopen.demonii.com%3A1337&amp;tr=udp%3A%2F%2Ftracker.coppersurfer.tk%3A6969&amp;tr=udp%3A%2F%2Fexodus.desync.com%3A6969","seeders":0,"leechers":1,"uploader":null,"files":1,"time":1376160958,"description":"Life Of The Party (2005) LiMiTED.DVDRip.XviD-iNTiMiD\n\nFormat  : AVI\nFormat/Info : Audio Video Interleave\nFile size : 701 MiB\nDuration : 1h 27mn\nOverall bit rate mode : Variable\nOverall bit rate: 1 124 Kbps\nWriting application: Nandub v1.0rc2\nWriting library : Nandub build 1853/release\n\nVideo\nID : 0\nFormat : MPEG-4 Visual\nFormat profile  Advanced Simple@L5\nFormat settings, BVOP : 2\nFormat settings, QPel : No\nFormat settings, GMC : No warppoints\nFormat settings, Matrix : Default (MPEG)\nMuxing mode  : Packed bitstream\nCodec ID : XVID\nCodec ID/Hint  : XviD\nDuration : 1h 27mn\nBit rate : 942 Kbps\nWidth : 640 pixels\nHeight  : 272 pixels\nDisplay aspect ratio : 2.35:1\nFrame rate : 23.976 fps\nColor space: YUV\nChroma subsampling : 4:2:0\nBit depth : 8 bits\nScan type : Progressive\nCompression mode : Lossy\nBits/(Pixel*Frame) : 0.226\nStream size  : 587 MiB (84%)\nWriting library : XviD 1.1.0 (UTC 2005-11-22)\n\nAudio\nID  : 1\nFormat  : MPEG Audio\nFormat version  : Version 1\nFormat profile : Layer 3\nMode : Joint stereo\nCodec ID : 55\nCodec ID/Hint  : MP3\nDuration : 1h 27mn\nBit rate mode : Variable\nBitrate : 169 Kbps\nMinimum bit rate: 32.0 Kbps\nChannel(s) : 2 channels\nSampling rate: 48.0 KHz\nCompression mode: Lossy\nStream size : 106 MiB (15%)\nAlignment  : Aligned on interleaves\nInterleave, duration : 24 ms (0.58 video frame)\nInterleave, preload duration: 453 ms\nWriting library : LAME3.98a\nEncoding settings : -m j -V 3 -q 0 -lowpass 18 --vbr-new -b 32\n","torrent":{"xt":"urn:btih:29155a0afbcdf4c70c2cae2e4d6ed4415aeb2def","amp;dn":"Life+Of+The+Party+%282005%29.DVDRip.XviD-iNTiMiD","amp;tr":["udp%3A%2F%2Ftracker.openbittorrent.com%3A80","udp%3A%2F%2Fopen.demonii.com%3A1337","udp%3A%2F%2Ftracker.coppersurfer.tk%3A6969","udp%3A%2F%2Fexodus.desync.com%3A6969"],"infoHash":"29155a0afbcdf4c70c2cae2e4d6ed4415aeb2def","infoHashBuffer":{"type":"Buffer","data":[41,21,90,10,251,205,244,199,12,44,174,46,77,110,212,65,90,235,45,239]},"announce":[],"urlList":[]}}